Coordinates
version=1
nRows=21
nColumns=12
inDegrees=yes

Units are S.I. units (second, meters, Newtons, ...)
Angles are in degrees

endheader
time	SC_y	SC_z	SC_x	AC_y	AC_z	AC_x	GH_y	GH_z	GH_yy	EL_x	PS_y
       0.0              -28.05          5.063           50.4          61.55         -14.99          9.293         -21.99          79.08         -50.61          11.36          115.4
   0.03749              -28.05          5.067          50.39          61.55         -14.99          9.292         -21.97          79.08         -50.58          11.38          115.4
   0.07497              -28.06          5.072          50.39          61.54         -14.99          9.291         -21.95          79.08         -50.55           11.4          115.4
    0.1125              -28.06          5.077          50.39          61.54         -14.99           9.29         -21.93          79.08         -50.51          11.42          115.4
    0.1499              -28.06          5.082          50.39          61.53         -14.99          9.289         -21.91          79.08         -50.47          11.44          115.4
    0.1874              -28.06          5.087          50.38          61.53         -14.99          9.288         -21.89          79.09         -50.43          11.46          115.4
    0.2249              -28.07          5.093          50.38          61.52         -14.99          9.287         -21.87          79.09         -50.39          11.48          115.4
    0.2624              -28.07          5.099          50.38          61.51          -15.0          9.286         -21.84          79.09         -50.34          11.51          115.4
    0.2999              -28.08          5.106          50.37          61.51          -15.0          9.285         -21.81          79.09         -50.29          11.54          115.4
    0.3374              -28.08          5.113          50.37           61.5          -15.0          9.284         -21.78          79.09         -50.24          11.56          115.4
    0.3749              -28.08          5.121          50.36          61.49          -15.0          9.282         -21.75          79.09         -50.18          11.59          115.4
    0.4124              -28.09          5.129          50.36          61.48          -15.0          9.281         -21.72          79.09         -50.11          11.63          115.4
    0.4498              -28.09          5.138          50.35          61.48          -15.0          9.279         -21.68          79.09         -50.05          11.66          115.4
    0.4873               -28.1          5.147          50.35          61.47          -15.0          9.278         -21.64          79.09         -49.97           11.7          115.5
    0.5248              -28.11          5.158          50.34          61.46         -15.01          9.276          -21.6          79.09          -49.9          11.74          115.5
    0.5623              -28.11          5.169          50.34          61.44         -15.01          9.274         -21.55          79.09         -49.81          11.79          115.5
    0.5998              -28.12          5.181          50.33          61.43         -15.01          9.272          -21.5           79.1         -49.72          11.84          115.5
    0.6373              -28.13          5.194          50.32          61.42         -15.01          9.269         -21.45           79.1         -49.62          11.89          115.5
    0.6748              -28.14          5.209          50.31          61.41         -15.01          9.267         -21.39           79.1          -49.5          11.95          115.5
    0.7122              -28.15          5.225          50.31          61.39         -15.02          9.264         -21.32           79.1         -49.38          12.01          115.5
    0.7497              -28.16          5.242           50.3          61.37         -15.02          9.261         -21.25           79.1         -49.25          12.08          115.5
